HIERARCHY
ROOT hemi_large
{
	OFFSET 0.000000 0.000000 0.000000
	CHANNELS 6 Xposition Yposition Zposition Yrotation Xrotation Zrotation
	End Site
	{
		OFFSET 0.000000 0.000000 0.000000
	}
}
MOTION
Frames: 118
Frame Time: 0.008333334
-2.793813 0.647913 3.500067 -149.783000 1.282083 5.854740 
-2.793702 0.647915 3.499991 -149.785000 1.248523 5.866899 
-2.793717 0.647803 3.500149 -149.786400 1.220967 5.853967 
-2.793575 0.647816 3.500258 -149.773300 1.225603 5.872287 
-2.793635 0.647929 3.500668 -149.745100 1.223836 5.821339 
-2.793481 0.647809 3.500359 -149.721100 1.276067 5.889753 
-2.793803 0.648015 3.500718 -149.722400 1.263238 5.837490 
-2.794044 0.647753 3.500850 -149.763100 1.227583 5.807343 
-2.793997 0.647831 3.501008 -149.788400 1.246291 5.816878 
-2.794399 0.647704 3.500783 -149.733000 1.223448 5.804760 
-2.794434 0.647693 3.500443 -149.719400 1.252639 5.828659 
-2.794788 0.647387 3.500526 -149.778700 1.214814 5.770684 
-2.795234 0.647690 3.500634 -149.778100 1.239693 5.750485 
-2.795511 0.647536 3.500611 -149.766100 1.238345 5.717231 
-2.795906 0.647806 3.500351 -149.731500 1.325783 5.726969 
-2.796112 0.647234 3.500145 -149.706000 1.329017 5.706482 
-2.796416 0.647329 3.499888 -149.727200 1.398793 5.723052 
-2.796289 0.647008 3.500391 -149.794700 1.383134 5.690484 
-2.796180 0.646896 3.500001 -149.751000 1.381107 5.729786 
-2.796305 0.646922 3.500149 -149.773600 1.382676 5.727873 
-2.796358 0.647433 3.500345 -149.755500 1.386686 5.691702 
-2.796252 0.647042 3.500180 -149.713600 1.352640 5.726262 
-2.796247 0.646642 3.499749 -149.705000 1.389462 5.769323 
-2.796324 0.647083 3.499343 -149.682800 1.397677 5.854094 
-2.795932 0.646874 3.500094 -149.669400 1.324978 5.793270 
-2.795835 0.646901 3.500086 -149.662800 1.321127 5.799012 
-2.795738 0.646928 3.500078 -149.656200 1.317276 5.804751 
-2.795641 0.646956 3.500069 -149.649600 1.313424 5.810491 
-2.795545 0.646983 3.500061 -149.643000 1.309571 5.816230 
-2.795448 0.647010 3.500053 -149.636400 1.305717 5.821969 
-2.795351 0.647037 3.500045 -149.629800 1.301863 5.827707 
-2.795255 0.647065 3.500036 -149.623200 1.298009 5.833446 
-2.795158 0.647092 3.500028 -149.616600 1.294153 5.839182 
-2.795061 0.647119 3.500020 -149.610000 1.290297 5.844919 
-2.794965 0.647147 3.500012 -149.603400 1.286441 5.850655 
-2.794868 0.647174 3.500004 -149.596800 1.282583 5.856390 
-2.794771 0.647201 3.499995 -149.590200 1.278725 5.862126 
-2.794674 0.647228 3.499987 -149.583500 1.274866 5.867862 
-2.794578 0.647256 3.499979 -149.577000 1.271007 5.873595 
-2.794481 0.647283 3.499971 -149.570400 1.267147 5.879330 
-2.794657 0.647318 3.499794 -149.579700 1.307181 5.846982 
-2.794843 0.647151 3.500033 -149.599900 1.250633 5.842909 
-2.794804 0.647203 3.499863 -149.600900 1.369429 5.836727 
-2.795206 0.646832 3.499925 -149.641900 1.289385 5.803291 
-2.795278 0.647068 3.499726 -149.601000 1.355118 5.802648 
-2.795362 0.647121 3.499779 -149.642200 1.299118 5.788976 
-2.795649 0.646926 3.499878 -149.668500 1.334604 5.789268 
-2.795526 0.646998 3.499617 -149.615800 1.375622 5.797460 
-2.795487 0.646849 3.499978 -149.658700 1.319613 5.783225 
-2.795631 0.646887 3.499777 -149.630600 1.340926 5.794967 
-2.795533 0.646894 3.499719 -149.627200 1.326915 5.796945 
-2.795837 0.646883 3.499739 -149.635300 1.353536 5.815186 
-2.795700 0.647065 3.499846 -149.619700 1.356515 5.826461 
-2.795493 0.646870 3.499919 -149.618500 1.313667 5.815437 
-2.795369 0.647171 3.499803 -149.592900 1.352452 5.798670 
-2.795404 0.647249 3.499406 -149.573900 1.331734 5.728000 
-2.795289 0.646990 3.499902 -149.630400 1.344915 5.812243 
-2.795318 0.647109 3.499725 -149.603800 1.330802 5.803837 
-2.795218 0.647075 3.499845 -149.612100 1.314695 5.818870 
-2.795072 0.647021 3.500115 -149.635400 1.311268 5.816975 
-2.794848 0.647033 3.499807 -149.612500 1.304178 5.782028 
-2.795028 0.647036 3.500095 -149.628600 1.273550 5.814319 
-2.794887 0.647166 3.499534 -149.590500 1.331108 5.883165 
-2.794743 0.647191 3.499661 -149.567600 1.331807 5.822171 
-2.794776 0.647600 3.499800 -149.562800 1.214080 5.681215 
-2.794657 0.647464 3.500013 -149.581200 1.281730 5.803662 
-2.794690 0.647286 3.499787 -149.621100 1.272952 5.875057 
-2.795052 0.647113 3.499898 -149.617500 1.273833 5.847116 
-2.794985 0.647046 3.500292 -149.611900 1.301594 5.844222 
-2.794984 0.646836 3.500029 -149.623400 1.315633 5.808062 
-2.795135 0.646865 3.500098 -149.651800 1.338674 5.834283 
-2.795166 0.647149 3.499827 -149.618500 1.329166 5.834293 
-2.795383 0.647009 3.499913 -149.631300 1.349959 5.812359 
-2.795329 0.646990 3.499744 -149.635000 1.351489 5.802658 
-2.795330 0.646883 3.499991 -149.626700 1.315987 5.805384 
-2.795458 0.647025 3.500112 -149.658500 1.315867 5.805993 
-2.795445 0.646977 3.499719 -149.613300 1.363787 5.816817 
-2.795344 0.647022 3.499612 -149.575400 1.373839 5.845358 
-2.795292 0.646939 3.499998 -149.633600 1.314819 5.810283 
-2.795290 0.647116 3.499604 -149.596800 1.358998 5.821653 
-2.795370 0.646987 3.499754 -149.606500 1.315718 5.823226 
-2.795414 0.647130 3.499850 -149.621100 1.345856 5.847550 
-2.795369 0.646914 3.499916 -149.633400 1.288847 5.810022 
-2.795271 0.646885 3.499848 -149.613500 1.318904 5.820123 
-2.795438 0.647156 3.500019 -149.645600 1.362114 5.828280 
-2.795295 0.646879 3.499713 -149.600800 1.366319 5.836134 
-2.795362 0.647000 3.499748 -149.601100 1.341241 5.824044 
-2.795178 0.646601 3.500211 -149.661100 1.323973 5.856690 
-2.795431 0.646984 3.500396 -149.632600 1.262892 5.820636 
-2.795180 0.646948 3.500014 -149.592900 1.335437 5.820444 
-2.795341 0.646639 3.500360 -149.643200 1.284467 5.843901 
-2.795340 0.646877 3.500325 -149.606200 1.296730 5.825385 
-2.795399 0.646808 3.500266 -149.593200 1.328525 5.834269 
-2.795587 0.646767 3.500650 -149.640400 1.322340 5.808529 
-2.795383 0.646555 3.501030 -149.644100 1.314935 5.865263 
-2.795531 0.646288 3.501214 -149.641400 1.304806 5.820908 
-2.795640 0.646195 3.501474 -149.605700 1.319535 5.795576 
-2.795921 0.646493 3.501787 -149.647100 1.288407 5.724016 
-2.796008 0.646019 3.502353 -149.626000 1.336219 5.751926 
-2.795944 0.645755 3.502954 -149.674400 1.323754 5.728222 
-2.795813 0.645965 3.503117 -149.683600 1.310201 5.706800 
-2.795809 0.645639 3.503312 -149.693600 1.318417 5.728301 
-2.795565 0.645748 3.503119 -149.659000 1.280991 5.753534 
-2.795208 0.645951 3.502711 -149.619500 1.301414 5.771514 
-2.794659 0.645600 3.502576 -149.637400 1.273119 5.831699 
-2.794251 0.645664 3.502437 -149.635700 1.242790 5.880023 
-2.793885 0.645771 3.502336 -149.577500 1.247293 5.942393 
-2.793699 0.645783 3.502582 -149.548500 1.210767 5.949806 
-2.793686 0.645535 3.503025 -149.565200 1.143559 5.957685 
-2.793745 0.645520 3.502899 -149.533700 1.137281 5.949454 
-2.793780 0.645425 3.503183 -149.556500 1.105609 5.917978 
-2.793920 0.645516 3.502976 -149.540100 1.155592 5.927462 
-2.794265 0.645460 3.503164 -149.545200 1.132258 5.941597 
-2.794697 0.645413 3.503045 -149.609900 1.140415 5.894484 
-2.794987 0.645405 3.502833 -149.602300 1.193691 5.871875 
-2.795268 0.645640 3.502895 -149.592500 1.236199 5.826836 
-2.795868 0.645508 3.502819 -149.607100 1.284506 5.740709 
-2.795938 0.645624 3.502934 -149.646800 1.256849 5.719516 
